#!OML:ASF G:\JayActor3\Patient Classification 1\Patient 1\Session 6\male.ASF
:FULLY-SPECIFIED
:DEGREES
1956
root -33.6244 15.9705 -15.4237 -180.76 -13.7368 172.944
lowerback -5.27754 -0.829632 -1.43314
upperback -0.483367 -1.03091 -1.19199
thorax 2.46396 -0.540269 -0.497708
lowerneck -0.518871 4.96923 4.82012
upperneck 0.876413 6.62802 -4.70723
head 0.702302 3.30159 -2.23505
rclavicle 1.69961e-014 7.15625e-015
rhumerus -34.2604 -3.02927 -85.5942
rradius 25.058
rwrist 3.24827
rhand -25.1603 -9.41876
rfingers 7.12502
rthumb 1.35677 -39.3942
lclavicle 1.69961e-014 7.15625e-015
lhumerus -36.0257 7.20738 86.3215
lradius 21.2984
lwrist 25.7044
lhand -22.0144 7.72089
lfingers 7.12502
lthumb 4.39483 37.6553
rfemur -24.7062 12.112 11.1491
rtibia 53.4647
rfoot -24.8338 -11.7927
rtoes -4.52116
lfemur 2.38452 21.5144 -24.743
ltibia 25.1225
lfoot -23.299 -5.86518
ltoes -38.4259
1957
root -33.6177 15.9777 -15.4026 -180.847 -13.2984 173.141
lowerback -5.08431 -0.941888 -1.41532
upperback -0.41226 -1.18191 -1.11386
thorax 2.43063 -0.613707 -0.435581
lowerneck -0.89255 4.25239 4.23972
upperneck 1.18793 5.66334 -4.04948
head 0.772786 2.81855 -1.92236
rclavicle -3.57812e-015 -2.54444e-014
rhumerus -34.0111 -2.79785 -85.6995
rradius 25.375
rwrist 2.9889
rhand -25.1225 -9.37083
rfingers 7.12502
rthumb 1.39328 -39.346
lclavicle -3.57812e-015 -2.54444e-014
lhumerus -36.0723 7.19581 86.4075
lradius 21.3867
lwrist 25.907
lhand -22.1931 7.69696
lfingers 7.12502
lthumb 4.22234 37.6349
rfemur -24.7696 12.428 11.3443
rtibia 53.2776
rfoot -24.6961 -11.5366
rtoes -3.90105
lfemur 2.30443 21.4467 -24.6625
ltibia 25.1626
lfoot -23.2679 -5.29929
ltoes -38.2456
1958
root -33.6109 15.9847 -15.3803 -180.925 -12.8314 173.326
lowerback -4.90978 -1.05483 -1.39232
upperback -0.321594 -1.33313 -1.05812
thorax 2.42753 -0.687447 -0.399465
lowerneck -1.24096 3.51537 3.64948
upperneck 1.45823 4.67318 -3.35243
head 0.835863 2.32443 -1.60157
rclavicle -6.4605e-016 -9.54166e-015
rhumerus -33.7324 -2.54257 -85.859
rradius 25.7246
rwrist 2.68613
rhand -25.12 -9.39233
rfingers 7.12502
rthumb 1.39567 -39.3675
lclavicle -6.4605e-016 -9.54166e-015
lhumerus -36.0962 7.14045 86.4812
lradius 21.4946
lwrist 26.109
lhand -22.3601 7.6805
lfingers 7.12502
lthumb 4.06103 37.6215
rfemur -24.8595 12.7206 11.5258
rtibia 53.0948
rfoot -24.4977 -11.2874
rtoes -3.43221
lfemur 2.21885 21.4126 -24.5928
ltibia 25.1963
lfoot -23.229 -4.73787
ltoes -38.0941
1959
root -33.6042 15.9916 -15.3567 -180.994 -12.3354 173.499
lowerback -4.74897 -1.16794 -1.36277
upperback -0.21244 -1.48415 -1.0247
thorax 2.4505 -0.761244 -0.390056
lowerneck -1.54013 2.75791 3.07911
upperneck 1.6676 3.65688 -2.63653
head 0.884008 1.81897 -1.28501
rclavicle 6.5102e-015 -1.51076e-014
rhumerus -33.4308 -2.25094 -86.0755
rradius 26.1144
rwrist 2.30796
rhand -25.1723 -9.48457
rfingers 7.12502
rthumb 1.3452 -39.4601
lclavicle 6.5102e-015 -1.51076e-014
lhumerus -36.0997 7.02564 86.552
lradius 21.6268
lwrist 26.3279
lhand -22.504 7.68383
lfingers 7.12502
lthumb 3.92211 37.6275
rfemur -24.9744 12.9929 11.6904
rtibia 52.9165
rfoot -24.2547 -11.0456
rtoes -3.08765
lfemur 2.12947 21.415 -24.5334
ltibia 25.2223
lfoot -23.1855 -4.19686
ltoes -37.9479
1960
root -33.5976 15.9982 -15.3315 -181.058 -11.8069 173.661
lowerback -4.58841 -1.27912 -1.33026
upperback -0.0925067 -1.63266 -1.0084
thorax 2.4841 -0.83394 -0.399518
lowerneck -1.8283 2.01752 2.48095
upperneck 1.89377 2.66411 -1.87672
head 0.948772 1.32647 -0.954926
rclavicle 5.47652e-014 6.36111e-015
rhumerus -33.1204 -1.93949 -86.3255
rradius 26.5392
rwrist 1.89982
rhand -25.2369 -9.58729
rfingers 7.12502
rthumb 1.28278 -39.5632
lclavicle 5.47652e-014 6.36111e-015
lhumerus -36.092 6.86926 86.6159
lradius 21.7764
lwrist 26.5427
lhand -22.6256 7.69027
lfingers 7.12502
lthumb 3.80465 37.6361
rfemur -25.1156 13.2455 11.8435
rtibia 52.7429
rfoot -23.9503 -10.7944
rtoes -2.8204
lfemur 2.03822 21.4455 -24.4841
ltibia 25.2382
lfoot -23.1384 -3.65712
ltoes -37.8391
1961
root -33.5911 16.0047 -15.3048 -181.115 -11.2456 173.808
lowerback -4.41693 -1.38832 -1.3098
upperback 0.0297977 -1.7784 -1.00314
thorax 2.51389 -0.905586 -0.412777
lowerneck -2.06648 1.28803 1.87849
upperneck 2.09429 1.6863 -1.1024
head 1.01206 0.842479 -0.625444
rclavicle -1.93318e-014 -1.59028e-015
rhumerus -32.8133 -1.62133 -86.5857
rradius 26.9926
rwrist 1.48451
rhand -25.2941 -9.67933
rfingers 7.12502
rthumb 1.22757 -39.6555
lclavicle -1.93318e-014 -1.59028e-015
lhumerus -36.0833 6.68324 86.6816
lradius 21.9398
lwrist 26.7461
lhand -22.7425 7.68647
lfingers 7.12502
lthumb 3.69175 37.6342
rfemur -25.2824 13.4795 11.9783
rtibia 52.5756
rfoot -23.5901 -10.5473
rtoes -2.66945
lfemur 1.9452 21.4843 -24.4565
ltibia 25.2416
lfoot -23.0885 -3.10618
ltoes -37.7428
1962
root -33.5847 16.0109 -15.2766 -181.165 -10.6482 173.937
lowerback -4.22561 -1.49376 -1.31676
upperback 0.147301 -1.91877 -1.00084
thorax 2.52828 -0.975104 -0.412298
lowerneck -2.26378 0.577066 1.27516
upperneck 2.29055 0.73313 -0.338443
head 1.08327 0.371247 -0.303527
rclavicle -2.5519e-014 1.74931e-014
rhumerus -32.524 -1.28531 -86.8427
rradius 27.4789
rwrist 1.05814
rhand -25.3377 -9.76077
rfingers 7.12502
rthumb 1.18541 -39.7372
lclavicle -2.5519e-014 1.74931e-014
lhumerus -36.0822 6.4893 86.7537
lradius 22.112
lwrist 26.9237
lhand -22.8536 7.67949
lfingers 7.12502
lthumb 3.58446 37.6291
rfemur -25.4749 13.7017 12.093
rtibia 52.4151
rfoot -23.1795 -10.3017
rtoes -2.62558
lfemur 1.85121 21.5301 -24.4543
ltibia 25.2315
lfoot -23.0368 -2.53304
ltoes -37.6653
1963
root -33.5782 16.017 -15.247 -181.208 -10.0169 174.044
lowerback -4.006 -1.59744 -1.35736
upperback 0.253471 -2.05663 -0.999104
thorax 2.51629 -1.04402 -0.39186
lowerneck -2.4203 -0.116396 0.704839
upperneck 2.48075 -0.197138 0.365399
head 1.16193 -0.0887407 -0.00819006
rclavicle 3.72721e-016 -5.1684e-015
rhumerus -32.2612 -0.934472 -87.0878
rradius 27.9933
rwrist 0.639363
rhand -25.36 -9.81741
rfingers 7.12502
rthumb 1.16384 -39.794
lclavicle 3.72721e-016 -5.1684e-015
lhumerus -36.0938 6.31282 86.8255
lradius 22.2829
lwrist 27.058
lhand -22.9701 7.65706
lfingers 7.12502
lthumb 3.47197 37.6085
rfemur -25.6898 13.9158 12.1833
rtibia 52.2616
rfoot -22.7378 -10.0305
rtoes -2.61083
lfemur 1.75447 21.5768 -24.481
ltibia 25.2095
lfoot -22.9844 -1.92754
ltoes -37.6098
1964
root -33.5717 16.0229 -15.2161 -181.248 -9.35034 174.134
lowerback -3.76705 -1.70028 -1.42938
upperback 0.355773 -2.19315 -0.997086
thorax 2.49082 -1.11294 -0.352188
lowerneck -2.52439 -0.796 0.176072
upperneck 2.63599 -1.10973 1.01172
head 1.23488 -0.540342 0.261872
rclavicle -8.92046e-015 1.98785e-014
rhumerus -32.009 -0.557067 -87.3289
rradius 28.5293
rwrist 0.222281
rhand -25.3618 -9.856
rfingers 7.12502
rthumb 1.16217 -39.8326
lclavicle -8.92046e-015 1.98785e-014
lhumerus -36.1082 6.15768 86.8958
lradius 22.4501
lwrist 27.1547
lhand -23.0856 7.63144
lfingers 7.12502
lthumb 3.36047 37.5847
rfemur -25.9236 14.1263 12.2559
rtibia 52.1132
rfoot -22.271 -9.75033
rtoes -2.6721
lfemur 1.65634 21.631 -24.5295
ltibia 25.1792
lfoot -22.929 -1.29812
ltoes -37.5704
1965
root -33.5653 16.0287 -15.1841 -181.29 -8.6496 174.22
lowerback -3.50932 -1.80563 -1.5135
upperback 0.458164 -2.3337 -0.993723
thorax 2.45578 -1.18424 -0.303311
lowerneck -2.60723 -1.45917 -0.281143
upperneck 2.78189 -2.00198 1.57392
head 1.31242 -0.982368 0.494356
rclavicle -2.96438e-014 -3.97569e-015
rhumerus -31.755 -0.180711 -87.5594
rradius 29.0673
rwrist -0.14092
rhand -25.3306 -9.8459
rfingers 7.12502
rthumb 1.19226 -39.8223
lclavicle -2.96438e-014 -3.97569e-015
lhumerus -36.1217 6.02352 86.961
lradius 22.6115
lwrist 27.2262
lhand -23.1851 7.59776
lfingers 7.12502
lthumb 3.2643 37.5525
rfemur -26.1687 14.3379 12.3285
rtibia 51.9677
rfoot -21.7925 -9.46031
rtoes -2.80031
lfemur 1.56026 21.7056 -24.5785
ltibia 25.1455
lfoot -22.8717 -0.6617
ltoes -37.564
1966
root -33.5589 16.0342 -15.1511 -181.338 -7.91428 174.31
lowerback -3.23172 -1.92478 -1.6124
upperback 0.557295 -2.49351 -0.974805
thorax 2.40811 -1.26553 -0.229747
lowerneck -2.64883 -2.09329 -0.749462
upperneck 2.90866 -2.85579 2.11311
head 1.38709 -1.40592 0.722696
rclavicle -1.20513e-014 9.93923e-015
rhumerus -31.5079 0.27219 -87.7941
rradius 29.6234
rwrist -0.510721
rhand -25.3026 -9.83514
rfingers 7.12502
rthumb 1.21934 -39.8114
lclavicle -1.20513e-014 9.93923e-015
lhumerus -36.1443 6.00343 86.9839
lradius 22.7385
lwrist 27.1355
lhand -23.1416 7.50133
lfingers 7.12502
lthumb 3.30633 37.4554
rfemur -26.4192 14.553 12.4091
rtibia 51.8231
rfoot -21.3051 -9.16199
rtoes -3.02041
lfemur 1.46845 21.8014 -24.62
ltibia 25.1121
lfoot -22.8131 -0.0188648
ltoes -37.6011
1967
root -33.5527 16.0393 -15.1172 -181.393 -7.14369 174.399
lowerback -2.93744 -2.05439 -1.72748
upperback 0.657332 -2.66811 -0.943598
thorax 2.35415 -1.35465 -0.133801
lowerneck -2.63227 -2.71164 -1.17804
upperneck 2.98058 -3.68986 2.61613
head 1.44238 -1.8205 0.93447
rclavicle -1.98163e-014 1.07344e-014
rhumerus -31.2658 0.793346 -88.0365
rradius 30.1996
rwrist -0.888169
rhand -25.2951 -9.85345
rfingers 7.12502
rthumb 1.22655 -39.8297
lclavicle -1.98163e-014 1.07344e-014
lhumerus -36.1714 6.06589 86.972
lradius 22.8382
lwrist 26.9012
lhand -22.8973 7.35296
lfingers 7.12502
lthumb 3.54225 37.3033
rfemur -26.6742 14.7733 12.4962
rtibia 51.68
rfoot -20.8222 -8.87704
rtoes -3.38788
lfemur 1.38088 21.9228 -24.6546
ltibia 25.081
lfoot -22.7552 0.624202
ltoes -37.6635
1968
root -33.5465 16.0442 -15.0825 -181.45 -6.33817 174.487
lowerback -2.62984 -2.19861 -1.86854
upperback 0.756572 -2.86286 -0.902965
thorax 2.29483 -1.45446 -0.0131193
lowerneck -2.59865 -3.32667 -1.62616
upperneck 3.05368 -4.45923 3.13113
head 1.50378 -2.17604 1.15615
rclavicle -1.31074e-014 -7.95139e-015
rhumerus -31.0313 1.40212 -88.3015
rradius 30.7959
rwrist -1.26478
rhand -25.3049 -9.92209
rfingers 7.12502
rthumb 1.21713 -39.8984
lclavicle -1.31074e-014 -7.95139e-015
lhumerus -36.207 6.21051 86.9146
lradius 22.9156
lwrist 26.5479
lhand -22.4669 7.14964
lfingers 7.12502
lthumb 3.95793 37.0926
rfemur -26.9371 14.9986 12.588
rtibia 51.5389
rfoot -20.3402 -8.59443
rtoes -3.88942
lfemur 1.29354 22.0477 -24.6916
ltibia 25.0507
lfoot -22.6965 1.29356
ltoes -37.7392
1969
root -33.5401 16.0487 -15.0473 -181.509 -5.49731 174.571
lowerback -2.30922 -2.34318 -2.0381
upperback 0.856448 -3.059 -0.855972
thorax 2.23198 -1.55567 0.131597
lowerneck -2.54514 -3.88484 -2.07802
upperneck 3.10294 -5.20388 3.66285
head 1.5628 -2.5412 1.38494
rclavicle -5.5287e-016 -1.19271e-015
rhumerus -30.8078 2.04949 -88.5661
rradius 31.4064
rwrist -1.63865
rhand -25.332 -9.99117
rfingers 7.12502
rthumb 1.19094 -39.9676
lclavicle -5.5287e-016 -1.19271e-015
lhumerus -36.2452 6.36989 86.8479
lradius 22.9862
lwrist 26.1505
lhand -21.9302 6.90764
lfingers 7.12502
lthumb 4.47617 36.8403
rfemur -27.2051 15.2424 12.6773
rtibia 51.4032
rfoot -19.8999 -8.27135
rtoes -4.30533
lfemur 1.20734 22.1819 -24.7311
ltibia 25.0185
lfoot -22.6375 1.9817
ltoes -37.8312
